<?xml version="1.0" encoding="utf-8"?>
<!-- Generator: Adobe Illustrator 27.2.0, SVG Export Plug-In . SVG Version: 6.00 Build 0)  -->
<svg version="1.1" id="Layer_1" xmlns="http://www.w3.org/2000/svg" xmlns:xlink="http://www.w3.org/1999/xlink" x="0px" y="0px"
	 viewBox="0 0 500 500" style="enable-background:new 0 0 500 500;" xml:space="preserve">
<g>
	<path d="M409.19,250c0,0.59-90.97,0.49-90.98,1.08c-0.01,0.59,90.92,3.26,90.9,3.85c-0.02,0.59-90.94-2.3-90.97-1.71
		c-0.03,0.59,90.78,6.05,90.74,6.64c-0.04,0.59-90.83-5.09-90.87-4.51c-0.05,0.59,90.55,8.85,90.49,9.43
		c-0.05,0.59-90.62-7.9-90.69-7.31c-0.06,0.59,90.23,11.65,90.16,12.23c-0.07,0.59-90.34-10.71-90.42-10.13
		c-0.08,0.59,89.82,14.45,89.73,15.03c-0.09,0.58-89.96-13.52-90.06-12.94c-0.1,0.58,89.33,17.25,89.22,17.83
		c-0.11,0.58-89.49-16.32-89.61-15.75c-0.12,0.58,88.74,20.03,88.62,20.61c-0.13,0.58-88.94-19.12-89.07-18.54
		c-0.14,0.57,88.07,22.8,87.93,23.37c-0.15,0.57-88.29-21.89-88.45-21.33c-0.15,0.57,87.32,25.55,87.15,26.12
		c-0.16,0.57-87.56-24.65-87.74-24.09c-0.17,0.56,86.47,28.28,86.29,28.84c-0.18,0.56-86.75-27.39-86.94-26.83
		c-0.19,0.56,85.54,30.97,85.34,31.53c-0.2,0.56-85.85-30.09-86.05-29.54c-0.21,0.55,84.53,33.64,84.31,34.19
		c-0.22,0.55-84.86-32.77-85.09-32.22c-0.22,0.55,83.43,36.27,83.2,36.81c-0.23,0.54-83.79-35.41-84.04-34.87
		c-0.24,0.54,82.26,38.86,82.01,39.4c-0.25,0.53-82.65-38.01-82.9-37.48c-0.26,0.53,81,41.41,80.74,41.94
		c-0.27,0.53-81.42-40.57-81.69-40.05c-0.27,0.52,79.67,43.92,79.39,44.44c-0.28,0.52-80.11-43.09-80.4-42.58
		c-0.29,0.51,78.27,46.38,77.97,46.89c-0.3,0.51-78.73-45.56-79.04-45.06c-0.31,0.5,76.78,48.8,76.47,49.29
		c-0.31,0.5-77.28-47.99-77.6-47.5c-0.32,0.49,75.23,51.16,74.9,51.65c-0.33,0.49-75.75-50.37-76.09-49.88
		c-0.34,0.48,73.61,53.47,73.26,53.95c-0.34,0.48-74.15-52.69-74.5-52.22c-0.35,0.47,71.91,55.72,71.56,56.19
		c-0.36,0.47-72.49-54.96-72.85-54.5c-0.37,0.46,70.15,57.92,69.78,58.38c-0.37,0.46-70.75-57.18-71.13-56.73
		c-0.38,0.45,68.33,60.07,67.94,60.51c-0.39,0.44-68.95-59.34-69.34-58.9c-0.39,0.44,66.44,62.15,66.04,62.58
		c-0.4,0.43-67.08-61.45-67.49-61.02s64.49,64.17,64.07,64.59c-0.41,0.42-65.15-63.49-65.57-63.08
		c-0.42,0.41,62.47,66.14,62.05,66.54c-0.43,0.41-63.15-65.47-63.59-65.07c-0.43,0.4,60.4,68.04,59.96,68.43
		c-0.44,0.39-61.1-67.39-61.54-67.01c-0.44,0.39,58.26,69.87,57.81,70.25c-0.45,0.38-58.99-69.25-59.44-68.88
		c-0.46,0.37,56.08,71.64,55.61,72.01c-0.46,0.37-56.81-71.04-57.28-70.69c-0.47,0.36,53.83,73.34,53.36,73.69
		c-0.47,0.35-54.59-72.77-55.06-72.43c-0.48,0.34,51.53,74.98,51.05,75.31c-0.48,0.34-52.3-74.43-52.79-74.1
		c-0.49,0.33,49.18,76.54,48.68,76.86c-0.49,0.32-49.97-76.02-50.47-75.7c-0.5,0.31,46.78,78.03,46.27,78.34
		c-0.5,0.31-47.58-77.53-48.09-77.24c-0.51,0.3,44.33,79.45,43.81,79.74c-0.51,0.29-45.14-78.98-45.66-78.7
		c-0.52,0.28,41.83,80.79,41.31,81.06c-0.52,0.27-42.66-80.35-43.18-80.08c-0.53,0.27,39.29,82.06,38.76,82.31
		c-0.53,0.26-40.13-81.64-40.66-81.39c-0.53,0.25,36.71,83.24,36.17,83.48c-0.54,0.24-37.56-82.85-38.1-82.62
		c-0.54,0.23,34.08,84.35,33.54,84.57c-0.54,0.22-34.94-83.99-35.49-83.77c-0.55,0.21,31.43,85.38,30.87,85.58
		c-0.55,0.21-32.3-85.04-32.85-84.84c-0.55,0.2,28.74,86.32,28.18,86.51c-0.56,0.19-29.62-86.01-30.18-85.83
		c-0.56,0.18,26.02,87.18,25.45,87.35c-0.56,0.17-26.91-86.9-27.47-86.74c-0.57,0.16,23.27,87.95,22.7,88.1
		c-0.57,0.15-24.17-87.7-24.74-87.55c-0.57,0.14,20.5,88.64,19.93,88.77c-0.57,0.14-21.41-88.41-21.99-88.29
		c-0.58,0.13,17.72,89.23,17.14,89.35c-0.58,0.12-18.63-89.04-19.21-88.93c-0.58,0.11,14.92,89.74,14.34,89.84
		c-0.58,0.1-15.84-89.58-16.43-89.49c-0.58,0.09,12.12,90.17,11.53,90.25c-0.58,0.08-13.05-90.03-13.63-89.95
		c-0.58,0.07,9.31,90.5,8.72,90.56c-0.59,0.06-10.25-90.39-10.83-90.33c-0.59,0.05,6.5,90.74,5.91,90.79
		c-0.59,0.05-7.45-90.66-8.04-90.63c-0.59,0.04,3.7,90.9,3.11,90.93c-0.59,0.03-4.65-90.85-5.25-90.83
		c-0.59,0.02,0.91,90.97,0.31,90.98c-0.59,0.01-1.87-90.95-2.46-90.95c-0.59,0-1.87,90.96-2.46,90.95
		c-0.59-0.01,0.9-90.96,0.31-90.98c-0.59-0.02-4.66,90.86-5.24,90.83c-0.59-0.03,3.69-90.89,3.11-90.93
		c-0.59-0.04-7.45,90.67-8.04,90.63c-0.59-0.05,6.5-90.74,5.91-90.79c-0.59-0.05-10.25,90.4-10.83,90.33
		c-0.59-0.06,9.3-90.49,8.72-90.56c-0.59-0.07-13.05,90.04-13.64,89.95c-0.59-0.08,12.11-90.16,11.53-90.25
		c-0.58-0.09-15.85,89.59-16.43,89.49c-0.58-0.1,14.92-89.74,14.34-89.84c-0.58-0.11-18.64,89.05-19.22,88.93
		c-0.58-0.12,17.72-89.23,17.15-89.35c-0.58-0.13-21.42,88.42-21.99,88.28c-0.57-0.14,20.51-88.63,19.94-88.77
		c-0.57-0.15-24.18,87.71-24.75,87.55c-0.57-0.15,23.28-87.94,22.71-88.1c-0.57-0.16-26.92,86.9-27.48,86.73
		c-0.56-0.17,26.02-87.17,25.46-87.35c-0.56-0.18-29.63,86.02-30.19,85.83c-0.56-0.19,28.74-86.31,28.19-86.51
		c-0.56-0.2-32.31,85.05-32.86,84.84c-0.55-0.21,31.43-85.36,30.88-85.58c-0.55-0.22-34.96,83.99-35.5,83.77
		c-0.55-0.22,34.09-84.34,33.55-84.57c-0.54-0.23-37.57,82.86-38.11,82.62c-0.54-0.24,36.71-83.23,36.18-83.48
		c-0.53-0.25-40.14,81.64-40.67,81.38c-0.53-0.26,39.3-82.04,38.77-82.31c-0.53-0.27-42.67,80.35-43.19,80.07
		c-0.52-0.27,41.84-80.78,41.32-81.06c-0.52-0.28-45.16,78.98-45.67,78.69c-0.51-0.29,44.33-79.43,43.82-79.73
		c-0.51-0.3-47.59,77.53-48.1,77.23c-0.5-0.31,46.78-78.02,46.28-78.33c-0.5-0.31-49.98,76.02-50.48,75.7
		c-0.49-0.32,49.19-76.52,48.7-76.85c-0.49-0.33-52.32,74.43-52.8,74.09c-0.48-0.34,51.54-74.96,51.06-75.31
		c-0.48-0.34-54.6,72.77-55.08,72.42c-0.47-0.35,53.84-73.33,53.37-73.69c-0.47-0.36-56.83,71.04-57.29,70.68
		c-0.46-0.37,56.08-71.63,55.62-72c-0.46-0.37-59,69.25-59.45,68.87c-0.45-0.38,58.27-69.86,57.82-70.24
		c-0.44-0.39-61.12,67.39-61.55,67c-0.44-0.39,60.4-68.02,59.97-68.42c-0.43-0.4-63.17,65.47-63.6,65.06
		c-0.43-0.41,62.48-66.12,62.06-66.53c-0.42-0.41-65.16,63.49-65.58,63.07c-0.41-0.42,64.49-64.16,64.08-64.58
		c-0.41-0.43-67.09,61.44-67.5,61.01c-0.4-0.43,66.44-62.13,66.05-62.57c-0.39-0.44-68.96,59.34-69.35,58.89
		c-0.39-0.44,68.33-60.05,67.95-60.5c-0.38-0.45-70.76,57.18-71.14,56.72c-0.37-0.46,70.16-57.91,69.79-58.37
		c-0.37-0.46-72.5,54.96-72.86,54.49c-0.36-0.47,71.92-55.71,71.56-56.18c-0.35-0.47-74.17,52.69-74.51,52.21
		c-0.34-0.48,73.61-53.45,73.27-53.94c-0.34-0.48-75.77,50.36-76.1,49.87c-0.33-0.49,75.23-51.14,74.91-51.64
		c-0.32-0.49-77.29,47.98-77.61,47.49c-0.31-0.5,76.78-48.78,76.48-49.28c-0.31-0.5-78.75,45.56-79.05,45.05
		c-0.3-0.51,78.26-46.37,77.97-46.88c-0.29-0.51-80.13,43.08-80.41,42.57c-0.28-0.52,79.67-43.9,79.4-44.43
		c-0.27-0.52-81.43,40.56-81.7,40.04c-0.27-0.53,81-41.4,80.75-41.93c-0.26-0.53-82.66,38-82.91,37.47
		c-0.25-0.53,82.26-38.85,82.02-39.38c-0.24-0.54-83.81,35.4-84.04,34.86c-0.23-0.54,83.43-36.25,83.21-36.8
		c-0.22-0.54-84.87,32.76-85.09,32.21c-0.21-0.55,84.53-33.62,84.32-34.18c-0.21-0.55-85.86,30.09-86.06,29.53
		c-0.2-0.55,85.54-30.96,85.35-31.52c-0.19-0.56-86.76,27.38-86.94,26.82c-0.18-0.56,86.47-28.26,86.29-28.83
		c-0.17-0.56-87.57,24.65-87.74,24.08c-0.16-0.57,87.31-25.54,87.16-26.11c-0.15-0.57-88.3,21.89-88.45,21.32
		c-0.14-0.57,88.07-22.79,87.93-23.37c-0.14-0.57-88.95,19.11-89.07,18.54c-0.13-0.58,88.74-20.02,88.62-20.6
		c-0.12-0.58-89.5,16.32-89.61,15.74c-0.11-0.58,89.32-17.24,89.22-17.82c-0.1-0.58-89.97,13.52-90.06,12.94
		c-0.09-0.58,89.81-14.45,89.73-15.03c-0.08-0.58-90.34,10.71-90.42,10.13c-0.07-0.58,90.22-11.65,90.16-12.23
		c-0.06-0.59-90.63,7.9-90.69,7.31c-0.05-0.59,90.54-8.85,90.49-9.43c-0.05-0.59-90.83,5.1-90.87,4.51
		c-0.04-0.59,90.77-6.05,90.74-6.64c-0.03-0.59-90.95,2.3-90.97,1.71c-0.02-0.59,90.91-3.26,90.9-3.85
		c-0.01-0.59-90.98-0.48-90.98-1.08c0-0.59,90.97-0.49,90.98-1.08c0.01-0.59-90.92-3.26-90.9-3.85c0.02-0.59,90.94,2.3,90.97,1.71
		c0.03-0.59-90.78-6.05-90.74-6.64c0.04-0.59,90.83,5.09,90.87,4.51c0.05-0.59-90.55-8.85-90.49-9.43
		c0.05-0.59,90.62,7.9,90.69,7.31c0.06-0.59-90.23-11.65-90.16-12.23c0.07-0.59,90.34,10.71,90.42,10.13
		c0.08-0.59-89.82-14.45-89.73-15.03c0.09-0.58,89.96,13.52,90.06,12.94c0.1-0.58-89.33-17.25-89.22-17.83
		c0.11-0.58,89.49,16.32,89.61,15.75c0.12-0.58-88.74-20.03-88.62-20.61c0.13-0.58,88.94,19.12,89.07,18.54
		c0.14-0.57-88.07-22.8-87.93-23.37c0.15-0.57,88.29,21.89,88.45,21.33c0.15-0.57-87.32-25.55-87.15-26.12
		c0.16-0.57,87.56,24.65,87.74,24.09c0.17-0.56-86.47-28.28-86.29-28.84c0.18-0.56,86.75,27.39,86.94,26.83
		c0.19-0.56-85.54-30.97-85.34-31.53c0.2-0.56,85.85,30.09,86.05,29.54c0.21-0.55-84.53-33.64-84.31-34.19
		c0.22-0.55,84.86,32.77,85.09,32.22c0.22-0.55-83.43-36.27-83.2-36.81c0.23-0.54,83.79,35.41,84.04,34.87
		c0.24-0.54-82.26-38.86-82.01-39.4c0.25-0.53,82.65,38.01,82.9,37.48c0.26-0.53-81-41.41-80.74-41.94
		c0.27-0.53,81.42,40.57,81.69,40.05c0.27-0.52-79.67-43.92-79.39-44.44c0.28-0.52,80.11,43.09,80.4,42.58
		c0.29-0.51-78.27-46.38-77.97-46.89c0.3-0.51,78.73,45.56,79.04,45.06c0.31-0.5-76.78-48.8-76.47-49.29
		c0.31-0.5,77.28,47.99,77.6,47.5c0.32-0.49-75.23-51.16-74.9-51.65c0.33-0.49,75.75,50.37,76.09,49.88
		c0.34-0.48-73.61-53.47-73.26-53.95c0.34-0.48,74.15,52.69,74.5,52.22c0.35-0.47-71.91-55.72-71.56-56.19
		c0.36-0.47,72.49,54.96,72.85,54.5c0.37-0.46-70.15-57.92-69.78-58.38c0.37-0.46,70.75,57.18,71.13,56.73
		c0.38-0.45-68.33-60.07-67.94-60.51c0.39-0.44,68.95,59.34,69.34,58.9c0.39-0.44-66.44-62.15-66.04-62.58
		c0.4-0.43,67.08,61.45,67.49,61.02c0.41-0.43-64.49-64.17-64.07-64.59c0.41-0.42,65.15,63.49,65.57,63.08
		c0.42-0.41-62.47-66.14-62.05-66.54c0.43-0.41,63.15,65.47,63.59,65.07c0.43-0.4-60.4-68.04-59.96-68.43
		c0.44-0.39,61.1,67.39,61.54,67.01c0.44-0.39-58.26-69.87-57.81-70.25c0.45-0.38,58.99,69.25,59.44,68.88
		c0.46-0.37-56.08-71.64-55.61-72.01c0.46-0.37,56.81,71.04,57.28,70.69c0.47-0.36-53.83-73.34-53.36-73.69
		c0.47-0.35,54.59,72.77,55.06,72.43c0.48-0.34-51.53-74.98-51.05-75.31c0.48-0.34,52.3,74.43,52.79,74.1
		c0.49-0.33-49.18-76.54-48.69-76.86c0.49-0.32,49.97,76.02,50.47,75.7c0.5-0.31-46.78-78.03-46.27-78.34
		c0.5-0.31,47.58,77.53,48.09,77.24c0.51-0.3-44.33-79.45-43.81-79.74c0.51-0.29,45.14,78.98,45.66,78.7
		c0.52-0.28-41.83-80.79-41.31-81.06c0.52-0.27,42.66,80.35,43.18,80.08c0.53-0.27-39.29-82.06-38.76-82.31
		c0.53-0.26,40.13,81.64,40.66,81.39c0.53-0.25-36.71-83.24-36.17-83.48c0.54-0.24,37.56,82.85,38.1,82.62
		c0.54-0.23-34.08-84.35-33.54-84.57c0.54-0.22,34.94,83.99,35.49,83.77c0.55-0.21-31.43-85.38-30.87-85.58
		c0.55-0.21,32.3,85.04,32.85,84.84c0.55-0.2-28.74-86.32-28.18-86.51c0.56-0.19,29.62,86.01,30.18,85.83
		c0.56-0.18-26.02-87.18-25.45-87.35c0.56-0.17,26.91,86.9,27.47,86.74c0.57-0.16-23.27-87.95-22.7-88.1
		c0.57-0.15,24.17,87.7,24.74,87.55c0.57-0.14-20.5-88.64-19.93-88.77c0.57-0.14,21.41,88.41,21.99,88.29
		c0.58-0.13-17.72-89.23-17.14-89.35c0.58-0.12,18.63,89.04,19.21,88.93c0.58-0.11-14.92-89.74-14.34-89.84
		c0.58-0.1,15.84,89.58,16.43,89.49c0.58-0.09-12.12-90.17-11.53-90.25c0.58-0.08,13.05,90.03,13.63,89.95
		c0.58-0.07-9.31-90.5-8.72-90.56c0.59-0.06,10.25,90.39,10.83,90.33c0.59-0.05-6.5-90.74-5.91-90.79
		c0.59-0.05,7.45,90.66,8.04,90.63c0.59-0.04-3.7-90.9-3.11-90.93c0.59-0.03,4.65,90.85,5.25,90.83c0.59-0.02-0.91-90.97-0.31-90.98
		c0.59-0.01,1.87,90.95,2.46,90.95c0.59,0,1.87-90.96,2.46-90.95c0.59,0.01-0.9,90.96-0.31,90.98c0.59,0.02,4.66-90.86,5.24-90.83
		c0.59,0.03-3.69,90.89-3.11,90.93c0.59,0.04,7.45-90.67,8.04-90.63c0.59,0.05-6.5,90.74-5.91,90.79
		c0.59,0.05,10.25-90.4,10.83-90.33c0.59,0.06-9.3,90.49-8.72,90.56c0.59,0.07,13.05-90.04,13.64-89.95
		c0.59,0.08-12.11,90.16-11.53,90.25c0.58,0.09,15.85-89.59,16.43-89.49c0.58,0.1-14.92,89.74-14.34,89.84
		c0.58,0.11,18.64-89.05,19.22-88.93c0.58,0.12-17.72,89.23-17.15,89.35c0.58,0.13,21.42-88.42,21.99-88.28
		c0.57,0.14-20.51,88.63-19.94,88.77c0.57,0.15,24.18-87.71,24.75-87.55c0.57,0.15-23.28,87.94-22.71,88.1
		c0.57,0.16,26.92-86.9,27.48-86.73c0.56,0.17-26.02,87.17-25.46,87.35c0.56,0.18,29.63-86.02,30.19-85.83
		c0.56,0.19-28.74,86.31-28.19,86.51c0.56,0.2,32.31-85.05,32.86-84.84c0.55,0.21-31.43,85.36-30.88,85.58
		c0.55,0.22,34.96-83.99,35.5-83.77c0.55,0.22-34.09,84.34-33.55,84.57c0.54,0.23,37.57-82.86,38.11-82.62
		c0.54,0.24-36.71,83.23-36.18,83.48c0.53,0.25,40.14-81.64,40.67-81.38c0.53,0.26-39.3,82.04-38.77,82.31
		c0.53,0.27,42.67-80.35,43.19-80.07c0.52,0.27-41.84,80.78-41.32,81.06c0.52,0.28,45.16-78.98,45.67-78.69
		c0.51,0.29-44.33,79.43-43.82,79.73c0.51,0.3,47.59-77.53,48.1-77.23c0.5,0.31-46.78,78.02-46.28,78.33
		c0.5,0.31,49.98-76.02,50.48-75.7c0.49,0.32-49.19,76.52-48.7,76.85c0.49,0.33,52.32-74.43,52.8-74.09
		c0.48,0.34-51.54,74.96-51.06,75.31c0.48,0.34,54.6-72.77,55.08-72.42c0.47,0.35-53.84,73.33-53.37,73.69
		c0.47,0.36,56.83-71.04,57.29-70.68c0.46,0.37-56.08,71.63-55.62,72c0.46,0.37,59-69.25,59.45-68.87
		c0.45,0.38-58.27,69.86-57.82,70.24c0.44,0.39,61.12-67.39,61.55-67c0.44,0.39-60.4,68.02-59.97,68.42
		c0.43,0.4,63.17-65.47,63.6-65.06c0.43,0.41-62.48,66.12-62.06,66.53c0.42,0.41,65.16-63.49,65.58-63.07
		c0.41,0.42-64.49,64.16-64.08,64.58c0.41,0.43,67.09-61.44,67.5-61.01c0.4,0.43-66.44,62.13-66.05,62.57
		c0.39,0.44,68.96-59.34,69.35-58.89c0.39,0.44-68.33,60.05-67.95,60.5c0.38,0.45,70.76-57.18,71.14-56.72
		c0.37,0.46-70.16,57.91-69.79,58.37c0.37,0.46,72.5-54.96,72.86-54.49c0.36,0.47-71.92,55.71-71.56,56.18
		c0.35,0.47,74.17-52.69,74.51-52.21c0.34,0.48-73.61,53.45-73.27,53.94c0.34,0.48,75.77-50.36,76.1-49.87
		c0.33,0.49-75.23,51.14-74.91,51.64c0.32,0.49,77.29-47.98,77.61-47.49c0.31,0.5-76.78,48.78-76.48,49.28
		c0.31,0.5,78.75-45.56,79.05-45.05c0.3,0.51-78.26,46.37-77.97,46.88c0.29,0.51,80.13-43.08,80.41-42.57
		c0.28,0.52-79.67,43.9-79.4,44.43c0.27,0.52,81.43-40.56,81.7-40.04c0.27,0.53-81,41.4-80.75,41.93c0.26,0.53,82.66-38,82.91-37.47
		c0.25,0.53-82.26,38.85-82.02,39.38c0.24,0.54,83.81-35.4,84.04-34.86c0.23,0.54-83.43,36.25-83.21,36.8
		c0.22,0.54,84.87-32.76,85.09-32.21c0.21,0.55-84.53,33.62-84.32,34.18c0.21,0.55,85.86-30.09,86.06-29.53
		c0.2,0.55-85.54,30.96-85.35,31.52c0.19,0.56,86.76-27.38,86.94-26.82c0.18,0.56-86.47,28.26-86.29,28.83
		c0.17,0.56,87.57-24.65,87.74-24.08c0.16,0.57-87.31,25.54-87.16,26.11c0.15,0.57,88.3-21.89,88.45-21.32
		c0.14,0.57-88.07,22.79-87.93,23.37c0.14,0.57,88.95-19.11,89.07-18.54c0.13,0.58-88.74,20.02-88.62,20.6
		c0.12,0.58,89.5-16.32,89.61-15.74c0.11,0.58-89.32,17.24-89.22,17.82c0.1,0.58,89.97-13.52,90.06-12.94
		c0.09,0.58-89.81,14.45-89.73,15.03c0.08,0.58,90.34-10.71,90.42-10.13c0.07,0.58-90.22,11.65-90.16,12.23
		c0.06,0.59,90.63-7.9,90.69-7.31c0.05,0.59-90.54,8.85-90.49,9.43c0.05,0.59,90.83-5.1,90.87-4.51c0.04,0.59-90.77,6.05-90.74,6.64
		c0.03,0.59,90.95-2.3,90.97-1.71c0.02,0.59-90.91,3.26-90.9,3.85C318.23,249.51,409.19,249.41,409.19,250z"/>
</g>
</svg>
